<svg width="906" height="214" viewBox="0 0 906 214" fill="none" xmlns="http://www.w3.org/2000/svg">
<path d="M0.7 210L37.3 4.19999H141.7C154.9 4.19999 166.1 6.09998 175.3 9.89998C184.5 13.5 191.6 18.8 196.6 25.8C201.6 32.6 204.1 41 204.1 51C204.1 59.4 202.2 67.2 198.4 74.4C194.6 81.4 189.5 87.3 183.1 92.1C176.7 96.9 169.4 100.2 161.2 102V103.2C170.2 106 177.7 111.1 183.7 118.5C189.7 125.9 192.7 135.4 192.7 147C192.7 161.2 189.2 173 182.2 182.4C175.4 191.6 166.4 198.5 155.2 203.1C144.2 207.7 132.2 210 119.2 210H0.7ZM52.3 173.4H115.3C121.1 173.4 126.4 172.4 131.2 170.4C136.2 168.4 140.1 165.2 142.9 160.8C145.7 156.4 147.1 150.9 147.1 144.3C147.1 137.5 145 132.2 140.8 128.4C136.8 124.4 130.4 122.4 121.6 122.4H61L52.3 173.4ZM67.6 87.3H126.7C131.9 87.3 136.4 86.6 140.2 85.2C144 83.6 147.1 81.6 149.5 79.2C151.9 76.6 153.7 73.7 154.9 70.5C156.3 67.3 157 63.9 157 60.3C157 53.5 155 48.4 151 45C147 41.6 141.7 39.9 135.1 39.9H75.7L67.6 87.3ZM317.404 213.6C297.604 213.6 280.704 210.6 266.704 204.6C252.704 198.6 242.004 189.6 234.604 177.6C227.404 165.6 223.804 150.6 223.804 132.6C223.804 128 223.904 123.4 224.104 118.8C224.504 114.2 225.104 109.7 225.904 105.3C229.704 83.3 236.704 64.5 246.904 48.9C257.104 33.1 270.504 21.1 287.104 12.9C303.704 4.7 323.404 0.599996 346.204 0.599996C365.804 0.599996 382.604 3.59999 396.604 9.59999C410.604 15.6 421.304 24.6 428.704 36.6C436.304 48.6 440.104 63.6 440.104 81.6C440.104 86 439.904 90.4 439.504 94.8C439.104 99.2 438.504 103.6 437.704 108C434.304 130.2 427.404 149.2 417.004 165C406.604 180.8 393.004 192.9 376.204 201.3C359.604 209.5 340.004 213.6 317.404 213.6ZM318.004 176.7C328.204 176.7 337.304 175.3 345.304 172.5C353.504 169.5 360.604 165.2 366.604 159.6C372.804 154 377.804 147.1 381.604 138.9C385.604 130.7 388.504 121.4 390.304 111C390.904 107.2 391.404 103.9 391.804 101.1C392.404 98.3 392.804 95.9 393.004 93.9C393.204 91.7 393.304 89.8 393.304 88.2C393.504 86.6 393.604 85 393.604 83.4C393.604 73.8 391.804 65.5 388.204 58.5C384.604 51.5 379.104 46.2 371.704 42.6C364.504 39 355.504 37.2 344.704 37.2C334.704 37.2 325.604 38.7 317.404 41.7C309.404 44.5 302.404 48.7 296.404 54.3C290.404 59.9 285.404 66.8 281.404 75C277.604 83.2 274.804 92.5 273.004 102.9C272.204 106.7 271.604 110 271.204 112.8C271.004 115.6 270.804 118.1 270.604 120.3C270.404 122.3 270.204 124.1 270.004 125.7C270.004 127.3 270.004 128.9 270.004 130.5C270.004 140.1 271.804 148.4 275.404 155.4C279.004 162.2 284.404 167.5 291.604 171.3C298.804 174.9 307.604 176.7 318.004 176.7ZM455.095 210L491.695 4.19999H532.795L592.795 114.9C594.195 117.1 595.595 119.7 596.995 122.7C598.595 125.5 600.095 128.4 601.495 131.4C603.095 134.2 604.495 136.8 605.695 139.2L607.495 138.9C607.895 135.5 608.395 131.8 608.995 127.8C609.595 123.8 610.095 120.5 610.495 117.9L629.995 4.19999H672.595L636.295 210H595.195L536.095 101.1C534.295 97.9 531.995 93.7 529.195 88.5C526.595 83.1 524.295 78.5 522.295 74.7H520.795C520.395 78.3 519.795 82.6 518.995 87.6C518.195 92.4 517.495 96.3 516.895 99.3L497.695 210H455.095ZM681.266 210L717.866 4.19999H762.566L746.366 95.1L846.266 4.19999H905.066L811.766 87.9L870.266 210H819.266L777.266 118.5L736.766 151.2L726.266 210H681.266Z" fill="#2165D1"/>
</svg>
